%FSTAX23Y23*%
%MOIN*%
%SFA1B1*%

%IPPOS*%
%AMD16*
4,1,8,0.022700,0.012200,-0.022700,0.012200,-0.025800,0.009200,-0.025800,-0.009200,-0.022700,-0.012200,0.022700,-0.012200,0.025800,-0.009200,0.025800,0.009200,0.022700,0.012200,0.0*
1,1,0.006102,0.022700,0.009200*
1,1,0.006102,-0.022700,0.009200*
1,1,0.006102,-0.022700,-0.009200*
1,1,0.006102,0.022700,-0.009200*
%
%AMD20*
4,1,8,-0.025800,0.059900,-0.025800,-0.059900,-0.021900,-0.063800,0.021900,-0.063800,0.025800,-0.059900,0.025800,0.059900,0.021900,0.063800,-0.021900,0.063800,-0.025800,0.059900,0.0*
1,1,0.007740,-0.021900,0.059900*
1,1,0.007740,-0.021900,-0.059900*
1,1,0.007740,0.021900,-0.059900*
1,1,0.007740,0.021900,0.059900*
%
%AMD21*
4,1,8,-0.025800,0.015600,-0.025800,-0.015600,-0.023000,-0.018300,0.023000,-0.018300,0.025800,-0.015600,0.025800,0.015600,0.023000,0.018300,-0.023000,0.018300,-0.025800,0.015600,0.0*
1,1,0.005496,-0.023000,0.015600*
1,1,0.005496,-0.023000,-0.015600*
1,1,0.005496,0.023000,-0.015600*
1,1,0.005496,0.023000,0.015600*
%
%AMD42*
4,1,8,-0.013000,0.037500,-0.013000,-0.037500,-0.009800,-0.040700,0.009800,-0.040700,0.013000,-0.037500,0.013000,0.037500,0.009800,0.040700,-0.009800,0.040700,-0.013000,0.037500,0.0*
1,1,0.006496,-0.009800,0.037500*
1,1,0.006496,-0.009800,-0.037500*
1,1,0.006496,0.009800,-0.037500*
1,1,0.006496,0.009800,0.037500*
%
%ADD10C,0.007874*%
%ADD15C,0.010000*%
G04~CAMADD=16~8~0.0~0.0~515.7~244.1~30.5~0.0~15~0.0~0.0~0.0~0.0~0~0.0~0.0~0.0~0.0~0~0.0~0.0~0.0~0.0~515.7~244.1*
%ADD16D16*%
%ADD17R,0.055118X0.082677*%
%ADD18R,0.044882X0.011811*%
%ADD19R,0.044882X0.023622*%
G04~CAMADD=20~8~0.0~0.0~1275.6~515.7~38.7~0.0~15~0.0~0.0~0.0~0.0~0~0.0~0.0~0.0~0.0~0~0.0~0.0~0.0~90.0~516.0~1276.0*
%ADD20D20*%
G04~CAMADD=21~8~0.0~0.0~366.1~515.7~27.5~0.0~15~0.0~0.0~0.0~0.0~0~0.0~0.0~0.0~0.0~0~0.0~0.0~0.0~90.0~516.0~366.0*
%ADD21D21*%
%ADD22R,0.047244X0.055118*%
%ADD23R,0.023622X0.021260*%
%ADD24R,0.022000X0.050000*%
%ADD25R,0.050000X0.022000*%
%ADD26R,0.055118X0.055118*%
%ADD27R,0.040000X0.031496*%
%ADD28R,0.078740X0.118110*%
%ADD29R,0.027000X0.018701*%
%ADD30R,0.026378X0.023622*%
%ADD31R,0.019685X0.027559*%
%ADD32R,0.015748X0.021654*%
%ADD33R,0.031890X0.036614*%
%ADD34R,0.011811X0.006890*%
%ADD35R,0.006890X0.011811*%
%ADD36R,0.015748X0.014961*%
%ADD37R,0.060000X0.140000*%
%ADD38R,0.035433X0.025591*%
%ADD39R,0.025591X0.035433*%
%ADD40R,0.023622X0.015748*%
%ADD41R,0.015748X0.023622*%
G04~CAMADD=42~8~0.0~0.0~815.0~260.0~32.5~0.0~15~0.0~0.0~0.0~0.0~0~0.0~0.0~0.0~0.0~0~0.0~0.0~0.0~90.0~260.0~815.0*
%ADD42D42*%
%ADD77C,0.015748*%
%ADD78C,0.011811*%
%ADD79C,0.019685*%
%ADD80R,0.064960X0.064960*%
%ADD81C,0.064960*%
%ADD82O,0.066929X0.035433*%
%ADD83O,0.078740X0.035433*%
%ADD84C,0.023622*%
%ADD85C,0.125984*%
%ADD86C,0.019685*%
%LNTop-1*%
%LPD*%
G36*
X00692Y01578D02*
X00677Y01562D01*
X00397*
Y01708*
X00401Y01712*
X00692*
Y01578*
G37*
G36*
X00984Y01345D02*
Y01325D01*
X0098Y01323*
X00979Y01323*
X00974Y01324*
X00969*
Y01273*
X00959*
Y01324*
X00955*
X00949Y01323*
X00945Y0132*
X00942Y01316*
X00941Y01312*
X00937*
X00936Y01316*
X00934Y0132*
X00929Y01323*
X00924Y01324*
X00919*
Y01273*
Y01222*
X00924*
X00929Y01223*
X00934Y01226*
X00936Y01231*
X00937Y01234*
X00941*
X00942Y01231*
X00945Y01226*
X00949Y01223*
X00952Y01223*
Y01213*
X00948Y01208*
X00791*
Y01225*
X00795Y01227*
X00795Y01226*
X00799Y01223*
X00805Y01222*
X00809*
Y01273*
Y01324*
X00805*
X00799Y01323*
X00795Y0132*
X00795Y0132*
X00791Y01321*
Y01346*
X0098*
X0098Y01346*
X00984Y01345*
G37*
G36*
X01261Y0157D02*
X01042Y01351D01*
Y01222*
X01034*
X01033Y01226*
X01034Y01226*
X01036Y01231*
X01038Y01236*
Y01268*
X01014*
Y01273*
X01009*
Y01324*
X01005*
X01Y01324*
X00997Y01326*
Y01433*
X0116Y01596*
Y01762*
X01261*
Y0157*
G37*
G36*
X00826Y00468D02*
X00824Y00465D01*
X00812*
Y00448*
X00807*
Y00443*
X00789*
Y00436*
X00748Y00431*
X00747Y00435*
X00749Y00437*
X00751Y00443*
X00732*
Y00448*
X00727*
Y00468*
X00724Y00467*
X0072Y00469*
X00719Y0047*
X00717Y00475*
X00712Y00477*
X00707Y00478*
X00689*
Y0045*
X00679*
Y00478*
X00663*
X00661Y00482*
X00661Y00482*
X00661Y00483*
X00826*
Y00468*
G37*
%LNTop-2*%
%LPC*%
G36*
X00674Y0169D02*
X00669D01*
Y01644*
X00688*
Y01677*
X00686Y01682*
X00684Y01686*
X00679Y01689*
X00674Y0169*
G37*
G36*
X00659D02*
X00655D01*
X00649Y01689*
X00645Y01686*
X00642Y01682*
X00641Y01677*
Y01644*
X00659*
Y0169*
G37*
G36*
X00448Y01649D02*
X00431D01*
Y01627*
X00448*
Y01649*
G37*
G36*
X00421D02*
X00403D01*
Y01627*
X00421*
Y01649*
G37*
G36*
X00552Y01613D02*
Y01599D01*
X00566*
X00564Y01605*
X00558Y01611*
X00552Y01613*
G37*
G36*
X00542D02*
X00536Y01611D01*
X0053Y01605*
X00527Y01599*
X00542*
Y01613*
G37*
G36*
X00448Y01617D02*
X00431D01*
Y01594*
X00448*
Y01617*
G37*
G36*
X00421D02*
X00403D01*
Y01594*
X00421*
Y01617*
G37*
G36*
X00688Y01634D02*
X00669D01*
Y01588*
X00674*
X00679Y01589*
X00684Y01592*
X00686Y01596*
X00688Y01602*
Y01634*
G37*
G36*
X00659D02*
X00641D01*
Y01602*
X00642Y01596*
X00645Y01592*
X00649Y01589*
X00655Y01588*
X00659*
Y01634*
G37*
G36*
X00566Y01589D02*
X00552D01*
Y01575*
X00558Y01577*
X00564Y01583*
X00566Y01589*
G37*
G36*
X00542D02*
X00527D01*
X0053Y01583*
X00536Y01577*
X00542Y01575*
Y01589*
G37*
G36*
X00909Y01324D02*
X00905D01*
X00899Y01323*
X00895Y0132*
X00892Y01316*
X00891Y01312*
X00887*
X00886Y01316*
X00884Y0132*
X00879Y01323*
X00874Y01324*
X00869*
Y01273*
Y01222*
X00874*
X00879Y01223*
X00884Y01226*
X00886Y01231*
X00887Y01234*
X00891*
X00892Y01231*
X00895Y01226*
X00899Y01223*
X00905Y01222*
X00909*
Y01273*
Y01324*
G37*
G36*
X00859D02*
X00855D01*
X00849Y01323*
X00845Y0132*
X00842Y01316*
X00841Y01312*
X00837*
X00836Y01316*
X00834Y0132*
X00829Y01323*
X00824Y01324*
X00819*
Y01273*
Y01222*
X00824*
X00829Y01223*
X00834Y01226*
X00836Y01231*
X00837Y01234*
X00841*
X00842Y01231*
X00845Y01226*
X00849Y01223*
X00855Y01222*
X00859*
Y01273*
Y01324*
G37*
G36*
X01217Y01753D02*
X01216D01*
Y01715*
X01254*
Y01716*
X01251Y01727*
X01245Y01736*
X01237Y01744*
X01228Y0175*
X01217Y01753*
G37*
G36*
X01206D02*
X01206D01*
X01195Y0175*
X01185Y01744*
X01177Y01736*
X01172Y01727*
X01169Y01716*
Y01715*
X01206*
Y01753*
G37*
G36*
X01254Y01705D02*
X01216D01*
Y01668*
X01217*
X01228Y01671*
X01237Y01676*
X01245Y01684*
X01251Y01694*
X01254Y01705*
Y01705*
G37*
G36*
X01206D02*
X01169D01*
Y01705*
X01172Y01694*
X01177Y01684*
X01185Y01676*
X01195Y01671*
X01206Y01668*
X01206*
Y01705*
G37*
G36*
X01024Y01324D02*
X01019D01*
Y01278*
X01038*
Y01311*
X01036Y01316*
X01034Y0132*
X01029Y01323*
X01024Y01324*
G37*
G36*
X00737Y00468D02*
Y00453D01*
X00751*
X00749Y0046*
X00743Y00465*
X00737Y00468*
G37*
G36*
X00802Y00465D02*
X00789D01*
Y00453*
X00802*
Y00465*
G37*
%LNTop-3*%
%LPD*%
G54D10*
X01295Y00604D02*
Y00657D01*
X01937Y00877D02*
Y00948D01*
X01692Y00983D02*
X01901D01*
X01937Y00948*
X01411Y01245D02*
Y0171D01*
Y01245D02*
X01598Y01059D01*
Y00983D02*
Y01059D01*
X01692Y00799D02*
X01751D01*
X01692D02*
D01*
X01618Y01149D02*
X01649D01*
X01297Y00671D02*
X01362Y00736D01*
X01413*
X01295Y00671D02*
X01297D01*
X01228Y00478D02*
X0125Y00456D01*
X01228Y00478D02*
Y00517D01*
X01293Y00519D02*
Y00523D01*
Y00515D02*
Y00519D01*
X01263Y00456D02*
Y00486D01*
X01293Y00515*
X01226Y00606D02*
Y00643D01*
X01253Y00671D02*
X01295D01*
X01226Y00643D02*
X01253Y00671D01*
X00153Y00952D02*
X00153D01*
X00231Y00933D02*
X00239D01*
X00223Y0094D02*
X00231Y00933D01*
X00192Y0072D02*
Y00881D01*
X00204Y00893D02*
X00231D01*
X00239Y00901*
X00192Y00881D02*
X00204Y00893D01*
X00192Y0072D02*
X0022D01*
X00181D02*
X00192D01*
X00287Y00807D02*
X00515D01*
X00535Y00787*
Y00755D02*
Y00787D01*
X00511Y00732D02*
X00535Y00755D01*
X00462Y00732D02*
X00511D01*
X00238Y00795D02*
X00275D01*
X00287Y00807D02*
Y00825D01*
X00275Y00795D02*
X00287Y00807D01*
X00238Y00834D02*
X00278D01*
X00287Y00825*
X00204Y00808D02*
X00209Y00812D01*
X00204Y00782D02*
Y00808D01*
Y00782D02*
X00209Y00777D01*
X00236*
X00209Y00812D02*
X00236D01*
X00238Y00814*
X00236Y00777D02*
X00238Y00775D01*
X0022Y0072D02*
X00225Y00715D01*
X00233*
X00439Y01114D02*
X01141D01*
X01066Y01039D02*
X01141Y01114D01*
X01165Y01137*
X00416Y0109D02*
X00439Y01114D01*
X01566Y00983D02*
Y01051D01*
D01*
X00238Y00854D02*
X00239Y00854D01*
X00314D02*
X00314Y00854D01*
X00239Y00854D02*
X00314D01*
X0087Y00456D02*
Y00488D01*
X00429Y00555D02*
X00803D01*
X0087Y00488*
X00401Y00582D02*
X00429Y00555D01*
X00401Y00582D02*
Y00677D01*
X00342Y00736D02*
X00401Y00677D01*
X00238Y00736D02*
X00342D01*
X00238Y00775D02*
X00334D01*
X00341Y00782D02*
X00462D01*
X00334Y00775D02*
X00341Y00782D01*
X0068Y0083D02*
X00728D01*
X00679Y00832D02*
X0068Y0083D01*
X00791Y00893D02*
Y00993D01*
X00728Y0083D02*
X00791Y00893D01*
X01145Y01074D02*
X01181Y0111D01*
X0109Y01019D02*
X01145Y01074D01*
X00418Y01038D02*
X00425Y01031D01*
X00393Y01038D02*
X00418D01*
X00393Y00937D02*
X00449Y00882D01*
X00393Y00937D02*
Y01001D01*
X00449Y00882D02*
X00462D01*
Y00932D02*
X00499D01*
X00523Y00956*
Y00996*
X0046Y01059D02*
X00523Y00996D01*
X00411Y01059D02*
X0046D01*
X00383Y01082D02*
X00387D01*
X00411Y01059*
X00379Y01086D02*
Y0109D01*
Y01086D02*
X00383Y01082D01*
X01444Y01137D02*
X01535Y01047D01*
Y00983D02*
Y01047D01*
X01165Y01137D02*
X01444D01*
X01066Y00909D02*
X01118Y00858D01*
X01066Y00909D02*
Y01039D01*
X01118Y00858D02*
X01208D01*
X01259Y00807D02*
Y00809D01*
X01247Y00821D02*
X01259Y00809D01*
X01245Y00821D02*
X01247D01*
X01208Y00858D02*
X01245Y00821D01*
X01503Y00983D02*
Y01039D01*
X01433Y0111D02*
X01503Y01039D01*
X01181Y0111D02*
X01433D01*
X0109Y00925D02*
Y01019D01*
Y00925D02*
X01137Y00877D01*
X01275*
X01299Y00854*
Y00767D02*
Y00854D01*
X01259Y00727D02*
X01299Y00767D01*
X01259Y00725D02*
Y00727D01*
X01295Y00978D02*
X01299Y00974D01*
X01295Y00978D02*
Y00988D01*
X01271Y01011D02*
X01295Y00988D01*
X01252Y01011D02*
X01271D01*
X01249Y01015D02*
Y01016D01*
Y01015D02*
X01252Y01011D01*
X01145Y00974D02*
Y00984D01*
Y00974D02*
D01*
X01172Y0101D02*
X01187D01*
X01191Y01014D02*
Y01016D01*
X01187Y0101D02*
X01191Y01014D01*
X01145Y00984D02*
X01172Y0101D01*
X0122Y00973D02*
Y01013D01*
X01295Y00974D02*
X01299D01*
X01472Y00984D02*
X01472Y00983D01*
X01389Y00984D02*
X01472D01*
X01299Y00937D02*
X01343D01*
X01389Y00984*
X01362Y00909D02*
X01377Y00925D01*
X01413*
X01251Y00909D02*
X01362D01*
X01224Y00937D02*
X01251Y00909D01*
X0122Y00937D02*
X01224D01*
X01149Y00937D02*
X01193Y00893D01*
X01413*
X01145Y00937D02*
X01149D01*
G54D15*
X01818Y00759D02*
X01836Y00742D01*
X01818Y00759D02*
Y00842D01*
X01799Y00862D02*
X01818Y00842D01*
X01751Y00862D02*
X01799D01*
X01751Y00893D02*
X01813D01*
X01732Y01165D02*
X01814D01*
X01837Y0087D02*
X01842D01*
X01813Y00893D02*
X01837Y0087D01*
X01842Y00833D02*
Y0087D01*
X01836Y00742D02*
X02005D01*
X02268Y00876D02*
X02271Y00874D01*
Y00836D02*
Y00874D01*
X02041Y00673D02*
Y00742D01*
X02039Y00671D02*
X02041Y00673D01*
X02062Y00877D02*
X02064Y00875D01*
X02161*
X01661Y00983D02*
Y01094D01*
X01732Y01165*
G54D16*
X00679Y00982D03*
Y00932D03*
Y00882D03*
Y00832D03*
Y00782D03*
Y00732D03*
Y00682D03*
Y00632D03*
X00462D03*
Y00682D03*
Y00732D03*
Y00782D03*
Y00832D03*
Y00882D03*
Y00932D03*
Y00982D03*
G54D17*
X00259Y01553D03*
Y01194D03*
X00082D03*
Y01553D03*
G54D18*
X00238Y00736D03*
Y00755D03*
Y00775D03*
Y00795D03*
Y00874D03*
Y00854D03*
Y00834D03*
Y00814D03*
G54D19*
X00239Y00901D03*
Y00709D03*
Y00677D03*
Y00933D03*
G54D20*
X00421Y0036D03*
G54D21*
X00684Y0045D03*
Y0036D03*
Y0027D03*
G54D22*
X01293Y00606D03*
Y00519D03*
X01226D03*
Y00606D03*
G54D23*
X01842Y00833D03*
Y00799D03*
X00125Y00335D03*
Y00301D03*
X00807Y00341D03*
Y00375D03*
X00791Y01027D03*
Y00993D03*
X01618Y01149D03*
Y01115D03*
G54D24*
X01472Y00983D03*
X01503D03*
X01535D03*
X01566D03*
X01598D03*
X01629D03*
X01661D03*
X01692D03*
Y00645D03*
X01661D03*
X01629D03*
X01598D03*
X01566D03*
X01535D03*
X01503D03*
X01472D03*
G54D25*
X01751Y00925D03*
Y00893D03*
Y00862D03*
Y0083D03*
Y00799D03*
Y00767D03*
Y00736D03*
Y00704D03*
X01413D03*
Y00736D03*
Y00767D03*
Y00799D03*
Y0083D03*
Y00862D03*
Y00893D03*
Y00925D03*
G54D26*
X00297Y00559D03*
X00174D03*
G54D27*
X02268Y00876D03*
Y00934D03*
G54D28*
X01937Y00877D03*
X02062D03*
G54D29*
X00314Y00886D03*
Y00854D03*
X0087Y00456D03*
Y00424D03*
G54D30*
X00192Y00301D03*
Y00335D03*
G54D31*
X0122Y01013D03*
Y01072D03*
G54D32*
X01249Y01016D03*
Y01069D03*
X01191Y01016D03*
Y01069D03*
G54D33*
X01259Y00725D03*
X01204D03*
X01259Y00807D03*
X01204D03*
X01984Y00671D03*
X02039D03*
G54D34*
X01295Y00657D03*
Y00671D03*
G54D35*
X01249Y00456D03*
X01263D03*
G54D36*
X00807Y00425D03*
Y00448D03*
G54D37*
X02145Y01165D03*
X01814D03*
G54D38*
X02161Y00875D03*
Y00933D03*
X01842Y0087D03*
Y00927D03*
G54D39*
X01082Y00725D03*
X01025D03*
X01083Y00807D03*
X01026D03*
X00426Y01622D03*
X00369D03*
G54D40*
X02259Y01049D03*
Y01085D03*
X02271Y00836D03*
Y008D03*
X00393Y01001D03*
Y01038D03*
X01145Y00974D03*
Y00937D03*
X0122Y00973D03*
Y00937D03*
X01299Y00974D03*
Y00937D03*
G54D41*
X00379Y0109D03*
X00416D03*
X02041Y00742D03*
X02005D03*
G54D42*
X00664Y01639D03*
X00714D03*
X00764D03*
X00814D03*
X00864D03*
X00914D03*
X00964D03*
X01014D03*
X01064D03*
X01114D03*
Y01273D03*
X01064D03*
X01014D03*
X00964D03*
X00914D03*
X00864D03*
X00814D03*
X00764D03*
X00714D03*
X00664D03*
G54D77*
X01843Y00799D02*
X01846Y00796D01*
X01842Y00799D02*
X01843D01*
X01846Y00776D02*
Y00796D01*
Y00776D02*
X01854Y00768D01*
Y00767D02*
Y00768D01*
X02268Y00934D02*
Y01044D01*
X00165Y00736D02*
Y00755D01*
X00106Y00335D02*
Y00677D01*
X01629Y00925D02*
Y00983D01*
X00826Y01437D02*
X00866D01*
X00764Y01375D02*
X00826Y01437D01*
X00764Y01273D02*
Y01375D01*
X00267Y00677D02*
X00267Y00677D01*
X00239Y00677D02*
X00267D01*
X00239Y00677D02*
X00239Y00677D01*
X00153Y01055D02*
X0022Y01122D01*
X00279*
X00153Y00767D02*
X00165Y00755D01*
X00153Y00952D02*
Y01055D01*
X00153Y00767D02*
Y00952D01*
X00082Y01125D02*
X00153Y01055D01*
X00082Y01125D02*
Y01194D01*
Y01553*
X00684Y00189D02*
Y0027D01*
Y00189D02*
X00685Y00188D01*
X00137Y00595D02*
Y00677D01*
X00181Y0072*
X01114Y01273D02*
Y01345D01*
X01114Y01346D02*
X01114Y01345D01*
X01026Y00725D02*
Y00766D01*
Y00806D02*
X01026Y00807D01*
X01026Y00766D02*
Y00806D01*
X01025Y00725D02*
X01026Y00725D01*
X00297Y00559D02*
X00354D01*
X00921Y01153D02*
X00964Y01196D01*
X00374Y01153D02*
X00921D01*
X00342Y01122D02*
X00374Y01153D01*
X00279Y01122D02*
X00342D01*
X00314Y00886D02*
X00319D01*
X00334Y00901*
X00546Y00862D02*
X00665Y00982D01*
X00515Y00832D02*
X00546Y00862D01*
X00602Y00807*
X00777Y00766D02*
X01026D01*
X00736Y00807D02*
X00777Y00766D01*
X00964Y01197D02*
Y01273D01*
X00755Y01027D02*
X00791D01*
X00755D02*
D01*
X00259Y01194D02*
X0032D01*
X00105Y00334D02*
X00124D01*
X00086D02*
X00105D01*
X00106Y00335*
Y00677D02*
X00165Y00736D01*
X00243Y00929D02*
X00267D01*
X00239Y00933D02*
X00243Y00929D01*
X0031Y00886D02*
X00314D01*
X00267Y00929D02*
X0031Y00886D01*
X00137Y00595D02*
X00174Y00559D01*
X00462Y00832D02*
X00515D01*
X00665Y00982D02*
X00679D01*
X00299Y00342D02*
Y00557D01*
X00297Y00559D02*
X00299Y00557D01*
X00258Y00301D02*
X00299Y00342D01*
X00192Y00301D02*
X00258D01*
X0007Y00257D02*
X0008Y00248D01*
X00593*
X00615Y0027*
X0007Y00257D02*
Y00318D01*
X00086Y00334*
X00124D02*
X00125Y00335D01*
Y00301D02*
X00125Y00301D01*
X00192D02*
X00192Y00301D01*
X00125Y00301D02*
X00192D01*
X00125Y00335D02*
X00192D01*
X00192Y00335*
X00125Y00335D02*
X00125Y00335D01*
X00259Y01194D02*
Y01553D01*
X01413Y0083D02*
X01467D01*
X01476Y00821*
Y00767D02*
Y00821D01*
Y00767D02*
X01507Y00736D01*
X01413Y00767D02*
X01476D01*
X01507Y00736D02*
X01751D01*
X01754Y00733*
X01787*
X01842Y00799D02*
X01843Y008D01*
X02271*
X00259Y01566D02*
X00314Y01622D01*
X00259Y01553D02*
Y01566D01*
X00314Y01622D02*
X00369D01*
X00869Y00425D02*
X0087Y00424D01*
X0077Y00375D02*
X00807D01*
X00744Y00401D02*
X0077Y00375D01*
X00641Y00401D02*
X00744D01*
X00594Y00354D02*
X00641Y00401D01*
X00594Y00291D02*
Y00354D01*
X00615Y0027D02*
X00684D01*
X00594Y00291D02*
X00615Y0027D01*
X02145Y01125D02*
Y01165D01*
X02259Y01049D02*
X02263D01*
X02268Y01044*
X02268Y00933D02*
X02268Y00934D01*
X02161Y00933D02*
X02268D01*
X02185Y01085D02*
X02259D01*
X02145Y01125D02*
X02185Y01085D01*
X02161Y00933D02*
X02161Y00933D01*
G54D78*
X01793Y00828D02*
X01795Y00826D01*
Y00759D02*
X01883Y00671D01*
X01754Y00828D02*
X01793D01*
X01795Y00759D02*
Y00826D01*
X01751Y0083D02*
X01754Y00828D01*
X01876Y00928D02*
X01877Y00929D01*
X01843Y00928D02*
X01876D01*
X01842Y00927D02*
X01843Y00928D01*
X01244Y00553D02*
X01295Y00604D01*
X01618Y01074D02*
Y01115D01*
X01208Y00498D02*
X01226Y00515D01*
X01204Y00498D02*
X01208D01*
X01131Y00424D02*
X01204Y00498D01*
X01226Y00515D02*
Y00519D01*
X0087Y00424D02*
X01131D01*
X01413Y00643D02*
Y00704D01*
X01293Y00523D02*
X01413Y00643D01*
X01244Y00537D02*
Y00553D01*
X01226Y00519D02*
X01244Y00537D01*
X01616Y00767D02*
X01751D01*
X01615Y00768D02*
X01616Y00767D01*
X01751Y0083D02*
X01751Y0083D01*
X01614Y00829D02*
X01614Y0083D01*
X01751*
X00233Y00715D02*
X00239Y00709D01*
X00417Y00948D02*
Y0095D01*
X00449Y00982*
X00462*
X00602Y00807D02*
X00736D01*
X00964Y01196D02*
X00964Y01197D01*
X01191Y01048D02*
Y01069D01*
X00664Y01209D02*
Y01273D01*
Y01209D02*
X00665Y01208D01*
X01503Y00594D02*
Y00645D01*
X01082Y00725D02*
X01204D01*
X01083Y00807D02*
X01204D01*
X00715Y01205D02*
X00716Y01204D01*
X00714Y01273D02*
X00715Y01272D01*
Y01205D02*
Y01272D01*
X01751Y00767D02*
D01*
X01218Y01071D02*
X0122Y01072D01*
X01191Y01069D02*
X01193Y01071D01*
X01218*
X0122Y01072D02*
X01221Y01071D01*
X01247D02*
X01249Y01069D01*
X01221Y01071D02*
X01247D01*
X01377Y00799D02*
X01413D01*
X01362Y00814D02*
X01377Y00799D01*
X01362Y00814D02*
Y00846D01*
X01377Y00862*
X01413*
X01883Y00671D02*
X01984D01*
X00807Y00375D02*
Y00425D01*
X00869*
X01388Y00196D02*
X01472Y00279D01*
Y00645*
X01388Y00118D02*
Y00196D01*
X01535Y00122D02*
X01539Y00118D01*
X01535Y00122D02*
Y00645D01*
X01566Y00291D02*
Y00645D01*
X01639Y00118D02*
Y00218D01*
X01566Y00291D02*
X01639Y00218D01*
X01629Y00358D02*
Y00645D01*
Y00358D02*
X01739Y00248D01*
Y00118D02*
Y00248D01*
X01661Y0046D02*
Y00645D01*
Y0046D02*
X01839Y00282D01*
Y00118D02*
Y00282D01*
X01692Y00555D02*
Y00645D01*
X01939Y00118D02*
Y00308D01*
X01692Y00555D02*
X01939Y00308D01*
X01751Y00634D02*
Y00704D01*
Y00634D02*
X02039Y00346D01*
Y00118D02*
Y00346D01*
X01661Y00645D02*
D01*
X01598Y00598D02*
Y00645D01*
X01696Y00925D02*
X01751D01*
Y00704D02*
X01751Y00704D01*
G54D79*
X00677Y0036D02*
X00684D01*
X00692D02*
X00711Y00341D01*
X00807*
X00808*
X00684Y0036D02*
X00692D01*
X00643Y00326D02*
X00677Y0036D01*
X00641Y00326D02*
X00643D01*
X00808Y00341D02*
X00873Y00275D01*
X01031*
X01188Y00118*
G54D80*
X00888Y00118D03*
X01539D03*
X01711Y0171D03*
G54D81*
X00988Y00118D03*
X01088D03*
X01188D03*
X01288D03*
X01388D03*
X01639D03*
X01739D03*
X01839D03*
X01939D03*
X02039D03*
X01611Y0171D03*
X01511D03*
X01411D03*
X01311D03*
X01211D03*
G54D82*
X00051Y00634D03*
Y00975D03*
G54D83*
X00216Y00634D03*
Y00975D03*
G54D84*
X00196Y00691D03*
Y00918D03*
G54D85*
X02244Y01712D03*
Y00137D03*
X00118Y01712D03*
X00137Y00137D03*
G54D86*
X01854Y00767D03*
X01795Y00826D03*
X01877Y00929D03*
X01692Y00799D03*
X01618Y01074D03*
X01649Y01149D03*
X01629Y00925D03*
X01615Y00768D03*
X01614Y00829D03*
X00866Y01437D03*
X00267Y00677D03*
X00685Y00188D03*
X00165Y00755D03*
X01114Y01345D03*
X00515Y00832D03*
X00547Y01594D03*
X00641Y00326D03*
X00354Y00559D03*
X00279Y01122D03*
X00334Y00901D03*
X00417Y00948D03*
X00964Y01196D03*
X01191Y01048D03*
X01026Y00766D03*
X01507Y00736D03*
X01566Y01051D03*
X00755Y01027D03*
X0032Y01194D03*
X00425Y01031D03*
X01145Y01074D03*
X00665Y01208D03*
X01503Y00594D03*
X00716Y01204D03*
X01377Y00799D03*
X02267Y01015D03*
X01787Y00733D03*
X00732Y00448D03*
X01598Y00598D03*
X01696Y00925D03*
M02*